<mxfile host="app.diagrams.net" modified="2023-08-15T11:47:33.291Z" agent="Mozilla/5.0 (X11; Ubuntu; Linux x86_64; rv:109.0) Gecko/20100101 Firefox/116.0" version="21.6.8" etag="a5-nHUeTfgdWiMJ-rpOr" type="github">
  <diagram name="Page-1" id="c1rF_odwGOoc5GD7ykX6">
    <mxGraphModel>
      <root>
        <mxCell id="0" />
        <mxCell id="1" parent="0" />
      </root>
    </mxGraphModel>
  </diagram>
</mxfile>
